<svg width="120" height="120" viewBox="0 0 120 120" fill="none" xmlns="http://www.w3.org/2000/svg">
<circle cx="60" cy="60" r="58" fill="white" stroke="#DA1A32" stroke-width="4"/>
<path d="M78.8181 69.3772C76.1598 73.0282 71.8536 75.4062 67.0019 75.4062H60.1942C57.8425 75.4062 55.8399 73.9132 55.0815 71.8235C54.1455 71.5443 53.2275 71.1818 52.3318 70.7367C50.4348 69.7942 48.7124 68.5174 47.1962 66.9355C37.361 69.0962 30 77.8598 30 88.3441V89.7145C30 91.5983 31.5272 93.1255 33.411 93.1255H86.333C88.2168 93.1255 89.744 91.5983 89.744 89.7145V88.3441C89.7439 80.2449 85.3508 73.1724 78.8181 69.3772Z" fill="#E23340"/>
<path d="M43.5708 59.9052C45.0368 59.9052 46.3128 59.0926 46.9739 57.8936C46.9913 57.941 47.0089 57.9882 47.0267 58.0354C47.032 58.0495 47.0373 58.0637 47.0425 58.0779C48.5934 62.16 51.611 65.5821 55.59 67.0773C56.5523 65.5482 58.254 64.5313 60.1944 64.5313H67.002C67.6811 64.5313 68.3131 64.3397 68.8671 64.0299C69.7976 63.5096 70.6344 62.1897 71.0665 61.49C71.758 60.3704 72.2937 59.1845 72.7688 57.8915C73.0357 58.3764 73.4028 58.7981 73.8427 59.1286V60.7978C73.8427 64.5698 70.774 67.6387 67.0019 67.6387H60.1942C58.9072 67.6387 57.8638 68.682 57.8638 69.969C57.8638 71.2561 58.9072 72.2994 60.1942 72.2994H67.0019C73.3438 72.2994 78.5034 67.1398 78.5034 60.7978V59.1286C79.4468 58.4199 80.057 57.2919 80.057 56.0213V48.9945V46.2999C80.057 45.0031 79.4211 43.8558 78.4446 43.1503C77.6872 33.5667 69.6468 26 59.8719 26C50.0969 26 42.0566 33.5667 41.2993 43.1502C40.3228 43.8556 39.6868 45.0031 39.6868 46.2998V56.021C39.6868 58.1722 41.4343 59.9052 43.5708 59.9052ZM59.8719 30.6609C67.108 30.6609 73.0765 36.1908 73.7741 43.2465C73.3161 43.6068 72.941 44.0672 72.6825 44.5956C70.4835 38.8586 65.5749 34.8644 59.8718 34.8644C54.0457 34.8644 49.2158 38.9959 47.0697 44.5726C47.0668 44.5802 47.064 44.588 47.0611 44.5957C46.8026 44.0674 46.4274 43.6069 45.9695 43.2467C46.6675 36.1908 52.6358 30.6609 59.8719 30.6609Z" fill="#E23340"/>
</svg>
